<svg xmlns="http://www.w3.org/2000/svg" viewBox="0 0 55 40">

  <style><![CDATA[
    .sprite { display: none; }
    .sprite:target { display: inline;}
  ]]></style>

  <g class="sprite" id="ball">
    <path d="M.286 14.07c-.382 2.072-.384 4.21.008 6.3l4.12-3.21zM24.403 1.585C19.62-.623 13.96-.56 9.15 1.992l7.512 5.625zM33.9 13.175l-4.81 3.748 4.936 3.695c.496-2.445.463-4.988-.125-7.443zM9.21 32.414c4.843 2.534 10.723 2.65 15.73.113l-8.097-6.062zM7.914 14.433L1.68 9.767c-.32.67-.594 1.356-.824 2.056l5.308 3.974zM18.593 25.102l8.336 6.242c.276-.19.55-.39.82-.6.317-.25.624-.506.92-.772l-8.327-6.234zM11.413 11.707l-7.41-5.55c-.463.552-.886 1.128-1.27 1.724l6.93 5.19zM22.093 22.375l8.092 6.06c.47-.545.904-1.113 1.297-1.702l-7.64-5.72zM14.913 8.98L7.196 3.203c-.193.138-.384.28-.573.426-.396.308-.774.63-1.136.967l7.676 5.747zM25.592 19.65l6.972 5.22c.33-.662.615-1.34.855-2.033l-6.078-4.55zM26.448 2.706L.88 22.626c.233.698.513 1.386.84 2.06L28.24 4.02c-.573-.48-1.172-.92-1.792-1.316zM30.743 6.624c-.3-.386-.614-.754-.94-1.106L2.787 26.568c.262.4.542.796.843 1.182.14.183.287.36.435.534l27.09-21.108c-.134-.186-.27-.37-.412-.552zM32.298 9L5.552 29.837c.544.5 1.114.962 1.708 1.382l25.962-20.228c-.263-.678-.57-1.344-.924-1.993z"/>
  </g>

  <g class="sprite price" id="gift">
    <path d="M4.238 33.713h12.504v-13.91H4.238zm28.182-23.62h-7.335c.52-.267.984-.55 1.396-.845 1.59-1.133 2.425-2.57 2.42-4 .003-1.168-.555-2.2-1.358-2.9-.805-.704-1.87-1.12-3.016-1.12-1.22-.002-2.352.42-3.32 1.068-1.46.98-2.606 2.45-3.424 4.067-.04.08-.078.157-.115.236-.3-.624-.647-1.227-1.04-1.793-.692-.985-1.524-1.86-2.498-2.51-.97-.647-2.104-1.07-3.323-1.07-1.213.004-2.323.514-3.155 1.295-.828.783-1.41 1.885-1.412 3.135-.002.73.21 1.494.65 2.188.55.872 1.423 1.628 2.632 2.248H2.934c-.878 0-1.59.712-1.59 1.59v5.897h15.395v-7.488h1.872v7.488h15.396v-5.897c.003-.88-.71-1.59-1.588-1.59m-22.362-2.34c-.622-.39-1-.784-1.22-1.134-.22-.355-.294-.663-.296-.964-.004-.504.248-1.042.69-1.46.438-.416 1.03-.668 1.563-.668h.013c.685 0 1.366.23 2.046.683 1.018.672 1.975 1.85 2.645 3.188.34.676.608 1.39.788 2.087-3.082-.32-5.078-1.002-6.23-1.73m10.537-1.628c.557-.797 1.21-1.466 1.887-1.916.68-.45 1.362-.682 2.047-.682h.005c.574 0 1.117.22 1.494.55.376.336.57.74.572 1.17-.004.513-.272 1.26-1.467 2.133-1.138.826-3.1 1.674-6.127 2.266.29-1.202.847-2.472 1.587-3.52m-1.98 27.587H31.12v-13.91H18.616z" fill="#231f20"/>
  </g>

  <g class="sprite rocket" id="rocket">
    <path d="M25.822 6.707c-1.916-.51-4.12-.876-6.494-.875-1.52 0-2.868.127-4.05.327L11.71 3.705l-7.07.003 3.053 3.248h4.438c-2.406.84-3.55 1.847-3.55 1.847v1.985s1.215 1.005 3.642 1.85l-4.53-.004-3.055 3.252h7.07l3.582-2.465c1.188.21 2.534.34 4.036.34 2.376 0 4.578-.366 6.495-.875-.618-.933-1.007-1.967-1.008-3.09 0-1.124.388-2.16 1.007-3.09zM27.62 7.25c-.674.844-1.034 1.708-1.032 2.544-.003.84.356 1.7 1.034 2.547 3.363-1.135 5.475-2.543 5.475-2.543S30.985 8.39 27.62 7.25z"/>
  </g>

  <g class="sprite" id="flower">
    <path d="M17.105 29.067c6.5 0 11.77-5.27 11.77-11.77-6.5 0-11.77 5.27-11.77 11.77zM8.742 13.7c0 1.805 1.464 3.27 3.27 3.27.685 0 1.327-.216 1.85-.575l-.027.248c0 1.805 1.465 3.27 3.27 3.27 1.804 0 3.27-1.465 3.27-3.27l-.028-.248c.53.366 1.165.576 1.85.576 1.806 0 3.27-1.465 3.27-3.27 0-1.3-.764-2.42-1.87-2.942 1.1-.523 1.87-1.64 1.87-2.943 0-1.805-1.464-3.27-3.27-3.27-.685 0-1.326.216-1.85.576l.028-.247c0-1.805-1.465-3.27-3.27-3.27-1.804 0-3.27 1.466-3.27 3.27l.027.248c-.53-.365-1.164-.574-1.85-.574-1.805 0-3.27 1.465-3.27 3.27 0 1.3.766 2.418 1.87 2.942-1.105.523-1.87 1.64-1.87 2.943zm8.363-6.21c1.805 0 3.27 1.463 3.27 3.268 0 1.804-1.465 3.27-3.27 3.27-1.804 0-3.27-1.466-3.27-3.27 0-1.805 1.466-3.27 3.27-3.27zm-11.77 9.807c0 6.5 5.27 11.77 11.77 11.77 0-6.5-5.27-11.77-11.77-11.77z"/>
  </g>

  <g class="sprite" id="heart">
    <path d="M33.55 12.278c0-4.825-3.913-8.736-8.737-8.736-3.405 0-6.348 1.95-7.79 4.793-1.44-2.842-4.383-4.793-7.788-4.793C4.41 3.542.5 7.452.5 12.278c0 9.127 14.656 19.12 16.524 19.12 1.87 0 16.525-9.95 16.525-19.12z"/>
  </g>

  <g class="sprite" id="price">
    <path d="M31.564 7.458H5.28c-1.46 0-2.646 1.186-2.646 2.647V23.34c0 1.462 1.185 2.648 2.647 2.648h26.284c1.462 0 2.647-1.186 2.647-2.648V10.105c0-1.46-1.184-2.647-2.646-2.647zM4.684 24.374V9.3H31.94v15.074z"/><path d="M7.33 21.727h21.965v-9.78H7.33zm11.093-8.493c1.99 0 3.604 1.614 3.604 3.603 0 1.99-1.613 3.603-3.604 3.603-1.99 0-3.603-1.613-3.603-3.603 0-1.99 1.613-3.603 3.603-3.603z"/>
  </g>
</svg>
